<svg width="115" height="42" viewBox="0 0 115 42" fill="none" xmlns="http://www.w3.org/2000/svg">
<path fill-rule="evenodd" clip-rule="evenodd" d="M37.5363 24.0686C36.341 29.8194 32.429 34.3099 27.4193 36.4783L32.3425 12.7909L8.65539 7.86767C12.6404 4.13695 18.3177 2.33836 24.0685 3.53361C33.4581 5.48517 39.4878 14.679 37.5363 24.0686ZM19.5911 37.8764C21.626 37.9897 23.6204 37.7408 25.5002 37.1781L27.6388 26.8887C29.1025 19.8465 24.5802 12.9511 17.538 11.4874L7.24879 9.3489C5.98353 10.849 4.9604 12.5792 4.25341 14.4911L23.6152 18.5152L19.5911 37.8764ZM17.8558 37.6922C17.5713 37.6475 17.2864 37.5956 17.0013 37.5364C7.61169 35.5848 1.58197 26.391 3.53353 17.0014C3.59274 16.7165 3.65863 16.4346 3.73098 16.1561L8.81063 17.2118C15.8528 18.6755 20.3751 25.5709 18.9114 32.6131L17.8558 37.6922Z" fill="#5329FF"/>
<path d="M52.1705 25.2979V14.1727H54.9394C55.8954 14.1727 56.6947 14.3128 57.3375 14.593C57.9968 14.8567 58.5242 15.244 58.9198 15.7549C59.3153 16.2659 59.5955 16.8839 59.7604 17.6091C59.9417 18.3179 60.0323 19.1172 60.0323 20.0072C60.0323 20.9797 59.9087 21.8038 59.6615 22.4795C59.4142 23.1553 59.0846 23.7074 58.6726 24.1359C58.2605 24.548 57.7908 24.8446 57.2634 25.0259C56.736 25.2072 56.1921 25.2979 55.6317 25.2979H52.1705ZM48.2891 10.9093V28.5613H55.9036C57.2551 28.5613 58.4253 28.3388 59.4142 27.8938C60.4196 27.4323 61.252 26.806 61.9112 26.0148C62.587 25.2237 63.0897 24.2843 63.4193 23.1965C63.7489 22.1087 63.9138 20.922 63.9138 19.6364C63.9138 18.1695 63.7077 16.8922 63.2957 15.8044C62.9001 14.7166 62.3397 13.8101 61.6145 13.0849C60.9058 12.3597 60.057 11.8158 59.0681 11.4532C58.0957 11.0906 57.0409 10.9093 55.9036 10.9093H48.2891ZM66.0946 19.7106C66.144 18.8865 66.35 18.2025 66.7126 17.6586C67.0752 17.1147 67.5367 16.6779 68.0971 16.3483C68.6575 16.0187 69.2838 15.7879 69.976 15.6561C70.6847 15.5077 71.3934 15.4336 72.1022 15.4336C72.7449 15.4336 73.396 15.483 74.0552 15.5819C74.7145 15.6643 75.3161 15.8374 75.86 16.1011C76.4039 16.3648 76.8489 16.7356 77.195 17.2136C77.5411 17.6751 77.7142 18.2931 77.7142 19.0678V25.7182C77.7142 26.295 77.7472 26.8472 77.8131 27.3746C77.879 27.902 77.9944 28.2976 78.1592 28.5613H74.5991C74.5332 28.3635 74.4755 28.1657 74.4261 27.9679C74.3931 27.7537 74.3684 27.5394 74.3519 27.3251C73.7915 27.902 73.1323 28.3058 72.3741 28.5365C71.6159 28.7673 70.8413 28.8827 70.0502 28.8827C69.4404 28.8827 68.8717 28.8085 68.3443 28.6602C67.8169 28.5118 67.3554 28.2811 66.9599 27.9679C66.5643 27.6548 66.2511 27.2592 66.0204 26.7812C65.8061 26.3033 65.699 25.7346 65.699 25.0754C65.699 24.3502 65.8226 23.7568 66.0698 23.2953C66.3335 22.8174 66.6632 22.4383 67.0587 22.1581C67.4708 21.8779 67.9323 21.6719 68.4432 21.54C68.9706 21.3917 69.498 21.2763 70.0255 21.1939C70.5529 21.1115 71.072 21.0456 71.583 20.9961C72.0939 20.9467 72.5472 20.8725 72.9427 20.7736C73.3383 20.6748 73.6514 20.5347 73.8822 20.3534C74.1129 20.1556 74.2201 19.8754 74.2036 19.5128C74.2036 19.1337 74.1377 18.837 74.0058 18.6228C73.8904 18.392 73.7256 18.219 73.5113 18.1036C73.3136 17.9717 73.0746 17.8893 72.7944 17.8564C72.5307 17.8069 72.2423 17.7822 71.9291 17.7822C71.2369 17.7822 70.693 17.9305 70.2974 18.2272C69.9018 18.5239 69.6711 19.0183 69.6052 19.7106H66.0946ZM74.2036 22.3064C74.0552 22.4383 73.8657 22.5454 73.635 22.6278C73.4207 22.6938 73.1817 22.7515 72.918 22.8009C72.6708 22.8503 72.4071 22.8915 72.1269 22.9245C71.8467 22.9575 71.5665 22.9987 71.2863 23.0481C71.0226 23.0976 70.7589 23.1635 70.4952 23.2459C70.248 23.3283 70.0255 23.4437 69.8277 23.592C69.6464 23.7239 69.498 23.8969 69.3827 24.1112C69.2673 24.3255 69.2096 24.5974 69.2096 24.927C69.2096 25.2402 69.2673 25.5039 69.3827 25.7182C69.498 25.9324 69.6546 26.1055 69.8524 26.2373C70.0502 26.3527 70.2809 26.4351 70.5446 26.4846C70.8083 26.534 71.0803 26.5587 71.3605 26.5587C72.0527 26.5587 72.5884 26.4434 72.9674 26.2126C73.3465 25.9819 73.6267 25.7099 73.808 25.3968C73.9893 25.0671 74.0965 24.7375 74.1294 24.4079C74.1789 24.0782 74.2036 23.8145 74.2036 23.6167V22.3064ZM83.1586 24.4079H79.821C79.854 25.2649 80.0435 25.9819 80.3896 26.5587C80.7522 27.1191 81.2055 27.5724 81.7494 27.9185C82.3098 28.2646 82.9443 28.5118 83.653 28.6602C84.3617 28.8085 85.0869 28.8827 85.8286 28.8827C86.5538 28.8827 87.2625 28.8085 87.9548 28.6602C88.6635 28.5283 89.2898 28.2893 89.8337 27.9432C90.3776 27.5971 90.8144 27.1438 91.144 26.5835C91.4901 26.0066 91.6632 25.2979 91.6632 24.4573C91.6632 23.864 91.5478 23.3695 91.317 22.974C91.0863 22.5619 90.7814 22.224 90.4023 21.9603C90.0232 21.6801 89.5865 21.4576 89.092 21.2928C88.614 21.128 88.1196 20.9879 87.6087 20.8725C87.1142 20.7572 86.628 20.65 86.15 20.5511C85.672 20.4522 85.2435 20.3451 84.8644 20.2297C84.5018 20.0979 84.2052 19.9331 83.9744 19.7353C83.7437 19.5375 83.6283 19.282 83.6283 18.9689C83.6283 18.7052 83.6942 18.4992 83.8261 18.3508C83.9579 18.186 84.1145 18.0624 84.2958 17.98C84.4936 17.8976 84.7079 17.8481 84.9386 17.8316C85.1694 17.7987 85.3836 17.7822 85.5814 17.7822C86.2077 17.7822 86.7516 17.9058 87.2131 18.153C87.6746 18.3838 87.93 18.837 87.9795 19.5128H91.317C91.2511 18.7217 91.0451 18.0706 90.699 17.5597C90.3693 17.0323 89.9491 16.612 89.4381 16.2988C88.9272 15.9857 88.3421 15.7632 87.6828 15.6313C87.04 15.4995 86.3725 15.4336 85.6803 15.4336C84.9881 15.4336 84.3123 15.4995 83.653 15.6313C82.9938 15.7467 82.4004 15.961 81.873 16.2741C81.3456 16.5708 80.9171 16.9828 80.5874 17.5103C80.2743 18.0377 80.1177 18.7134 80.1177 19.5375C80.1177 20.0979 80.2331 20.5759 80.4638 20.9714C80.6946 21.3505 80.9995 21.6719 81.3786 21.9356C81.7576 22.1828 82.1862 22.3889 82.6641 22.5537C83.1586 22.702 83.6613 22.8339 84.1722 22.9492C85.4248 23.2129 86.3972 23.4766 87.0895 23.7404C87.7982 24.0041 88.1526 24.3996 88.1526 24.927C88.1526 25.2402 88.0784 25.5039 87.93 25.7182C87.7817 25.9159 87.5922 26.0808 87.3614 26.2126C87.1472 26.328 86.8999 26.4186 86.6197 26.4846C86.356 26.534 86.1006 26.5587 85.8533 26.5587C85.5072 26.5587 85.1694 26.5175 84.8397 26.4351C84.5266 26.3527 84.2464 26.2291 83.9991 26.0643C83.7519 25.883 83.5459 25.6605 83.3811 25.3968C83.2327 25.1166 83.1586 24.7869 83.1586 24.4079ZM93.7178 10.9093V28.5613H97.2285V21.8614C97.2285 20.5594 97.4427 19.6282 97.8712 19.0678C98.2998 18.4909 98.992 18.2025 99.9479 18.2025C100.789 18.2025 101.374 18.4662 101.703 18.9936C102.033 19.5045 102.198 20.2874 102.198 21.3423V28.5613H105.708V20.6995C105.708 19.9083 105.634 19.1914 105.486 18.5486C105.354 17.8893 105.115 17.3372 104.769 16.8922C104.423 16.4307 103.945 16.0763 103.335 15.8291C102.742 15.5654 101.975 15.4336 101.036 15.4336C100.376 15.4336 99.7007 15.6066 99.0085 15.9527C98.3163 16.2824 97.7476 16.818 97.3026 17.5597H97.2285V10.9093H93.7178ZM108.521 24.754V28.5613H112.403V24.754H108.521Z" fill="#100937"/>
</svg>
