<svg width="12" height="12" viewBox="0 0 12 12" fill="none" xmlns="http://www.w3.org/2000/svg">
<path fill-rule="evenodd" clip-rule="evenodd" d="M3.47425 0.166611H8.53175C10.5092 0.166611 11.8334 1.55494 11.8334 3.61994V8.38636C11.8334 10.4449 10.5092 11.8333 8.53175 11.8333H3.47425C1.49675 11.8333 0.166748 10.4449 0.166748 8.38636V3.61994C0.166748 1.55494 1.49675 0.166611 3.47425 0.166611ZM5.66758 7.74411L8.43841 4.97328C8.63675 4.77494 8.63675 4.45411 8.43841 4.24994C8.24008 4.05161 7.91341 4.05161 7.71508 4.24994L5.30591 6.65911L4.28508 5.63828C4.08675 5.43994 3.76008 5.43994 3.56175 5.63828C3.36341 5.83661 3.36341 6.15744 3.56175 6.36161L4.95008 7.74411C5.04925 7.84328 5.17758 7.88994 5.30591 7.88994C5.44008 7.88994 5.56841 7.84328 5.66758 7.74411Z" fill="#61C877"/>
</svg>
